<?xml version="1.0" encoding="UTF-8"?>
<svg version="1.1" xmlns="http://www.w3.org/2000/svg" width="512" height="512">
<path d="M0 0 C74.46857607 -1.27617519 142.26777173 38.01726905 195.83349609 86.81494141 C197.43979845 88.27249492 199.05260651 89.72293899 200.67431641 91.16333008 C206.83949918 96.6442705 212.74362494 102.33788298 218.5625 108.18359375 C219.41263672 109.02986328 220.26277344 109.87613281 221.13867188 110.74804688 C225.55524164 115.17143759 229.82444316 119.66132673 233.89770508 124.40307617 C235.75645285 126.56470369 237.69079931 128.65197883 239.625 130.74609375 C244.77920662 136.46514493 249.56247333 142.44290162 254.20361328 148.58203125 C255.17677704 149.86065242 256.17689765 151.11870293 257.18359375 152.37109375 C260.58867034 157.00122622 261.2576862 161.34459468 260.96484375 167.05859375 C258.78992504 178.35088691 247.83949303 187.80986799 240.375 196.12109375 C239.56546875 197.03117188 238.7559375 197.94125 237.921875 198.87890625 C235.75290032 201.30534915 233.56500938 203.71363663 231.375 206.12109375 C230.60671875 206.9821875 229.8384375 207.84328125 229.046875 208.73046875 C223.11308057 215.31952882 216.94749968 221.65365007 210.6875 227.93359375 C209.89166504 228.734021 209.09583008 229.53444824 208.27587891 230.35913086 C203.46986014 235.15266776 198.53189604 239.70934709 193.375 244.12109375 C192.29198888 245.07049798 191.20990966 246.02096664 190.12890625 246.97265625 C181.18618268 254.77337079 171.90690954 262.05542159 162.375 269.12109375 C161.71193848 269.61577148 161.04887695 270.11044922 160.36572266 270.62011719 C127.46786 295.0184825 90.34408814 313.76593338 50.375 323.12109375 C49.67294434 323.28689941 48.97088867 323.45270508 48.24755859 323.62353516 C-12.1229957 337.4433006 -74.80094825 319.51298591 -126.4375 287.68359375 C-148.05796035 274.11631797 -168.22109099 258.61064975 -187.08349609 241.42724609 C-188.68979845 239.96969258 -190.30260651 238.51924851 -191.92431641 237.07885742 C-198.08949918 231.597917 -203.99362494 225.90430452 -209.8125 220.05859375 C-210.66263672 219.21232422 -211.51277344 218.36605469 -212.38867188 217.49414062 C-216.80524164 213.07074991 -221.07444316 208.58086077 -225.14770508 203.83911133 C-227.00645285 201.67748381 -228.94079931 199.59020867 -230.875 197.49609375 C-236.02920662 191.77704257 -240.81247333 185.79928588 -245.45361328 179.66015625 C-246.42677704 178.38153508 -247.42689765 177.12348457 -248.43359375 175.87109375 C-251.83867034 171.24096128 -252.5076862 166.89759282 -252.21484375 161.18359375 C-250.040367 149.89359527 -239.09097506 140.42916682 -231.625 132.12109375 C-230.79226562 131.1878125 -229.95953125 130.25453125 -229.1015625 129.29296875 C-227.69515899 127.72371852 -226.28434898 126.15839637 -224.86743164 124.59863281 C-223.44147779 123.02317504 -222.02236613 121.44147657 -220.61254883 119.8515625 C-214.96721323 113.49833751 -209.08438007 107.42931069 -203.0625 101.43359375 C-202.16853516 100.53576172 -201.27457031 99.63792969 -200.35351562 98.71289062 C-195.27223412 93.63904333 -190.08897297 88.77831549 -184.625 84.12109375 C-183.54181332 83.17188982 -182.4597322 82.22142239 -181.37890625 81.26953125 C-172.43618268 73.46881671 -163.15690954 66.18676591 -153.625 59.12109375 C-152.96193848 58.62641602 -152.29887695 58.13173828 -151.61572266 57.62207031 C-107.47584732 24.8861806 -55.4387554 1.85194118 0 0 Z M-187.625 135.99609375 C-188.50937744 136.87579834 -189.39375488 137.75550293 -190.30493164 138.66186523 C-194.75603573 143.12396283 -199.06098116 147.64809687 -203.1640625 152.43261719 C-205.48031268 155.10962024 -207.96429106 157.63222145 -210.4375 160.1640625 C-211.81343443 162.06940162 -211.81343443 162.06940162 -211.6953125 164.43359375 C-210.12182288 168.38454578 -207.45394728 170.93041401 -204.5 173.93359375 C-203.37114372 175.10556607 -202.24354681 176.27875268 -201.1171875 177.453125 C-200.53815674 178.05342529 -199.95912598 178.65372559 -199.36254883 179.2722168 C-197.64567646 181.09909251 -196.0092493 182.97469471 -194.37890625 184.87890625 C-190.18445976 189.71384659 -185.67055322 194.22585298 -181.13696289 198.73950195 C-179.68975615 200.18134596 -178.24797974 201.62846491 -176.80664062 203.07617188 C-171.58288037 208.3040734 -166.25740203 213.33602405 -160.625 218.12109375 C-159.49512724 219.10566279 -158.36619073 220.09130747 -157.23828125 221.078125 C-149.58176031 227.72103022 -141.78455953 234.10285509 -133.625 240.12109375 C-132.99787109 240.58483398 -132.37074219 241.04857422 -131.72460938 241.52636719 C-120.45939545 249.80115877 -108.76528976 257.19910322 -96.625 264.12109375 C-95.84398926 264.56727051 -95.06297852 265.01344727 -94.25830078 265.47314453 C-49.24113402 290.88958073 2.03630997 300.3878507 52.32421875 286.6171875 C108.78953508 270.29371815 154.8974 233.56600095 195.875 192.74609375 C196.7117627 191.91400391 197.54852539 191.08191406 198.41064453 190.22460938 C204.94929634 183.66889908 211.06437947 176.88187757 216.8125 169.62109375 C217.83150391 168.3371875 217.83150391 168.3371875 218.87109375 167.02734375 C219.61552734 166.08375 219.61552734 166.08375 220.375 165.12109375 C218.91885941 160.36436782 216.07088503 157.30850373 212.6875 153.80859375 C211.66159222 152.73027688 210.63686589 151.65083484 209.61328125 150.5703125 C209.08178467 150.01126221 208.55028809 149.45221191 208.00268555 148.8762207 C206.34237103 147.08591006 204.75226076 145.24896611 203.1640625 143.39453125 C198.95475724 138.55211674 194.43152081 134.02725387 189.88696289 129.50268555 C188.43975615 128.06084154 186.99797974 126.61372259 185.55664062 125.16601562 C180.33246009 119.93780573 175.00102108 114.91391649 169.375 110.12109375 C168.32648854 109.19586162 167.27953684 108.26885801 166.234375 107.33984375 C93.71740255 43.6142169 5.33814255 13.9029994 -187.625 135.99609375 Z " fill="#ffffff" transform="translate(251.625,91.87890625)"/>
<path d="M0 0 C0.5878125 0.4434375 1.175625 0.886875 1.78125 1.34375 C20.93291661 16.15919021 31.55842492 42.2051891 34.6875 65.4375 C36.95274629 92.09029141 30.58064606 118.26851338 13.875 139.4375 C12.58790905 140.96220774 11.29673181 142.48348313 10 144 C9.5565625 144.5878125 9.113125 145.175625 8.65625 145.78125 C-6.30483777 165.12119273 -31.95992163 175.52376665 -55.51171875 178.53125 C-81.89816909 181.4661659 -108.5492461 174.35910398 -129.4375 157.875 C-130.96220774 156.58790905 -132.48348313 155.29673181 -134 154 C-134.5878125 153.5565625 -135.175625 153.113125 -135.78125 152.65625 C-155.12119273 137.69516223 -165.52376665 112.04007837 -168.53125 88.48828125 C-171.4661659 62.10183091 -164.35910398 35.4507539 -147.875 14.5625 C-146.58790905 13.03779226 -145.29673181 11.51651687 -144 10 C-143.5565625 9.4121875 -143.113125 8.824375 -142.65625 8.21875 C-127.84080979 -10.93291661 -101.7948109 -21.55842492 -78.5625 -24.6875 C-49.31718923 -27.17308699 -22.34888649 -19.10991744 0 0 Z M-119.96875 35.44921875 C-131.23092837 49.59191582 -135.47227091 67.10007407 -134 85 C-131.23166206 104.43688327 -121.23346662 119.86921494 -106 132 C-92.07482548 142.2631102 -73.95242938 145.94569418 -56.93994141 143.73193359 C-38.74200991 140.61291843 -23.14112844 130.94145222 -12.125 116.125 C-1.66729653 99.9793261 2.91684749 81.72419746 -1.1315918 62.78881836 C-5.63504964 44.18002248 -16.629353 29.18912707 -32.6875 18.75 C-62.76246453 1.63920401 -97.91825198 9.86598249 -119.96875 35.44921875 Z " fill="#ffffff" transform="translate(323,179)"/>
</svg>
